<svg id="Layer_1" data-name="Layer 1" xmlns="http://www.w3.org/2000/svg" viewBox="0 0 512 512"><title>flying-bird</title><g id="flying-bird"><g id="label"><path d="M512,256c0,141.39-114.61,256-256,256S0,397.39,0,256,114.61,0,256,0,512,114.62,512,256Z" fill="#59dbdb"/></g><g id="fill"><path d="M347.16,163.79a24.71,24.71,0,0,1-7.82-12.52,21.69,21.69,0,0,1-.45-2.46l-.48-.59.43-2.43c.7-7.42,6-14.83,14.72-14.83a14.78,14.78,0,0,1,13.51,8.84A14.26,14.26,0,0,1,380.22,131c7.72,0,13.94,6.32,14.77,15a17.14,17.14,0,0,1-.5,5.2,24.62,24.62,0,0,1-7.75,12.54l-19.64,17.21Z" fill="#ff8bc7"/><path d="M266.25,214c-7.81,0-12.06-4-12.83-4.82-29-30.16-45.4-31-45.56-31l-4.23-.38-1.54-3.28c-4-10.91,13.86-48.58,23.83-67l10.27,2.22c2.46,35.32,34.93,65.21,38.63,68.5l.36.31.3.38c14.46,18.31,6.35,27.84,5.37,28.86l-.79,2.32-2.51,1.29A29.14,29.14,0,0,1,266.25,214Z" fill="#fff"/><path d="M170.67,413.59c-1.79-1.83-3.19-5.16-4.16-9.87-.23.16-5.42,3.88-9.87,4.14l-2.44.15-1.74-1.74c-1.89-1.9-2.61-5.58-2.14-10.94A23.66,23.66,0,0,1,143,396.7a16.51,16.51,0,0,1-1.69-.09l.3-5.11L136.43,393c-.84-2.44-.35-6,1.44-10.64-.45,0-2.1.21-4.2.21a23.9,23.9,0,0,1-7-.86l-6-1.88,2.76-5.72a26.21,26.21,0,0,1,4.31-5.88c-2.9-.94-6.94-2.92-9-5.05l-3.53-3.67,3.41-3.78a23.21,23.21,0,0,1,7-4.72l.48-.22.51-.13c47.85-12.49,81.32-28.55,83.29-39.95l.07-.41.13-.4c.71-2.12,7.25-20.82,17.36-25.26-31.88-40.22-71.81-93.87-84.14-116.59l7.73-7.22c8.55,5.42,26.74,14.83,52.68,17l.78.07.72.27a5.53,5.53,0,0,0,1,.32l1.15-.32,1.3.15c4.18.68,19.77,4.94,44.53,30.71.32.35,4.54,5,13,5,5.34,0,11-1.85,17.34-5.66.83-.61,28.93-20.63,44.71-20.63a12.46,12.46,0,0,1,4.83.86c6.18,2.59,15.41,9,21.34,13.93l7.71,6.44-9.6,3c-13.07,4.06-29.53,14.56-33.79,41.63-.05.42-8.16,59.86-74.66,71.83l-.57.07c-1.86.13-11.46,1.65-17.93,18.36-.2.49-12.72,29-41.91,65.06-1.12,1.57-4.46,5.28-7.63,6.2l-3.15.9Z" fill="#fff"/></g><g id="outline"><path d="M367.09,185.8a4.87,4.87,0,0,1-3.18-1.18l-20-17.19a29.67,29.67,0,0,1-9.31-15,18.68,18.68,0,0,1-.52-7.7c.94-10.4,9.35-18.63,19.47-18.63A19.61,19.61,0,0,1,367,131.44a18.78,18.78,0,0,1,13.2-5.34c10.16,0,18.57,8.23,19.57,19.14a19.25,19.25,0,0,1-.57,7.13,29.45,29.45,0,0,1-9.29,15l-19.63,17.2A4.86,4.86,0,0,1,367.09,185.8Zm-13.51-50c-5.84,0-9.38,5.18-9.86,10.3a10.59,10.59,0,0,0,.35,4,19.89,19.89,0,0,0,6.27,10l16.72,14.39,16.44-14.4a19.72,19.72,0,0,0,6.25-10,11.56,11.56,0,0,0,.39-3.63c-.51-5.45-4.05-10.62-9.92-10.62a9.34,9.34,0,0,0-8.67,5.91,4.86,4.86,0,0,1-4.45,2.92h0a4.86,4.86,0,0,1-4.45-2.91A9.92,9.92,0,0,0,353.57,135.83Z" fill="#3d3d3d"/><path d="M280.5,213.62a5.47,5.47,0,0,1-3.63-9.57c.15-.16,6.21-6.61-5.69-21.69-4.3-3.84-37.84-34.86-40.46-72.18-15.77,29.09-26.54,58.2-23.24,63.11a5.28,5.28,0,0,1,4.36,6.2,5.53,5.53,0,0,1-6.44,4.37,10.39,10.39,0,0,1-7.81-5.88c-7.28-15.1,17.22-61.67,24.91-75.58,1.75-3.21,5.89-10.78,12.28-9.67,4.22.75,6.27,4.81,6.8,8.35a5.48,5.48,0,0,1,0,1.15c-2.39,37.31,36.74,71.85,37.14,72.19a5.64,5.64,0,0,1,.68.71c19.12,23.87,5.29,36.57,4.69,37.1A5.44,5.44,0,0,1,280.5,213.62Z" fill="#3d3d3d"/><path d="M174.42,420.77a10.62,10.62,0,0,1-2.14-.22c-4.77-1-7.51-4.94-9.11-8.76-3.7,1.48-8.32,2.32-12.34.07-3.24-1.82-5.2-5.09-5.86-9.75-3.78.33-8.15-.21-11.25-3.35-2.57-2.6-3.56-6.22-3-10.82-4.85-.39-10.32-1.9-12.63-6.43-2-3.9-.77-7.93,1.11-11.16-3.7-2.21-7.39-5.59-7.69-10.37-.53-8.2,9.14-12.71,12.31-14.2a5.32,5.32,0,0,1,.94-.34c37.7-9.79,78.75-26.46,79.77-35.69a5.55,5.55,0,0,1,.23-1.08c.64-2,5.74-17.13,14.79-25.27-94.1-119.17-87.13-127.61-84.14-131.24,1.79-2.17,5.34-4,12.08-.54a5.47,5.47,0,0,1,1,.67c.21.18,22.56,18.5,59.51,20.43,1.79.05,19.38,1.46,49.35,32.67.37.39,7.72,7.68,23-1.5,6.06-4.37,39-27.07,54.86-20.37,8.32,3.5,27.6,16.62,31.2,24.2a5.48,5.48,0,0,1-4.68,7.82c-1.33.07-31.8,2.12-37.55,38.7-.06.49-9.06,64.12-79.48,76.58-.32.05-.68,0-1,.08-.13,0-7.55.69-13.11,15.08-.6,1.4-13.1,29.83-42.48,66.06C187.23,413.38,181.6,420.77,174.42,420.77Zm-7.91-22.52a5.49,5.49,0,0,1,5.36,4.37c1.26,6.11,2.84,7.27,2.85,7.28.67-.18,3.24-2.41,4.74-4.51,28.57-35.24,40.94-63.3,41.07-63.58,7.54-19.5,19.5-21.63,22.65-21.85,62-11.16,69.91-65,70.21-67.3,4.89-31.05,25-42.09,37.57-46-5.72-4.78-14.41-10.76-19.94-13.08-7.51-3.16-31.07,9.71-44.61,19.42-23.73,14.25-36.53.4-37.07-.2-26.62-27.72-41.75-29.17-41.9-29.18-28.81-1.5-49.33-11.92-59.26-18.22,11.24,20.69,48.06,70.91,83.61,115.77a5.48,5.48,0,0,1-2.09,8.42c-6.75,3-12.62,16.78-14.37,22-3.59,20.83-66.92,39-87.3,44.3a17.51,17.51,0,0,0-5.32,3.45,19.94,19.94,0,0,0,6.72,3.63,5.48,5.48,0,0,1,2.34,8.93,20,20,0,0,0-3.41,4.57,25.8,25.8,0,0,0,8.88.41,5.48,5.48,0,0,1,5.74,7.41c-2,5.22-1.37,6.88-1.36,6.9.72.33,4.31-.07,6.81-1a5.47,5.47,0,0,1,7.36,5.61c-.46,5.22.55,6.57.56,6.58.9.21,4.56-1.35,6.93-3.1A5.48,5.48,0,0,1,166.51,398.24Z" fill="#3d3d3d"/><circle cx="324.65" cy="204.19" r="5.69" fill="#3d3d3d"/></g></g></svg>